# xmcd CD database file generated by Grip 3.2.0
# 
# Track frame offsets:
#       183
#       21390
#       43338
#       53770
#       67085
#       84425
#       108795
#       126643
#       145498
#       159788
#       185103
#       196888
#       212965
#       265428
#       279045
#       292995
# 
# Disc length: 4221 seconds
# 
# Revision: 2
# Processed by: cddbd v1.5.2PL0 Copyright (c) Steve Scherf et al.
# Submitted via: Grip 3.2.0
# 
DISCID=f8107b10
DTITLE=Pavarotti Anniversary - Pavarotti Anniversary
DYEAR=1900
DGENRE=Classical
TTITLE0=Che Gelida Manina
TTITLE1=Col Pito Qui M'Avete
TTITLE2=Si, Fui Soldato
TTITLE3=Come Un Bel Di Di Maggio
TTITLE4=Aha! Perche Non Posso Odiarti
TTITLE5=Cielo E Mar
TTITLE6=Lunge Da Lei ... De'Miei Bolenti Spiriti
TTITLE7=Recitar! ...Vesti La Giubba
TTITLE8=Di! Tu Se Fedele
TTITLE9=Forse La Soglia Attinse ... Ma Se M'E Forza Perderti
TTITLE10=Dai Campi, Dai Prati
TTITLE11=Giunto Sul Passo Extremo
TTITLE12=Non Mi Lasciare ... Oh Muto Asil
TTITLE13=Recondita Armonia
TTITLE14=E Lucevan E Stelle
TTITLE15=Addio Alla Madre
EXTD=
EXTT0=
EXTT1=
EXTT2=
EXTT3=
EXTT4=
EXTT5=
EXTT6=
EXTT7=
EXTT8=
EXTT9=
EXTT10=
EXTT11=
EXTT12=
EXTT13=
EXTT14=
EXTT15=
PLAYORDER=
